<?xml version="1.0" encoding="UTF-8"?>
<svg width="20px" height="220px" viewBox="0 0 20 220" version="1.1" xmlns="http://www.w3.org/2000/svg" xmlns:xlink="http://www.w3.org/1999/xlink">
    <!-- Generator: Sketch 53.2 (72643) - https://sketchapp.com -->
    <title>Artboard</title>
    <desc>Created with Sketch.</desc>
    <g id="Artboard" stroke="none" stroke-width="1" fill="none" fill-rule="evenodd">
        <g id="search" fill="#FFFFFF" fill-rule="nonzero">
            <path d="M19.9994922,17.7377344 L14.6738281,12.4120313 C15.5117969,11.14625 15.9994531,9.63132813 15.9994531,8.00054688 C15.9994531,3.58175781 12.4180859,0.0003515625 8,0.0003515625 C3.58183594,0.0003515625 0.0005078125,3.58175781 0.0005078125,8.00054688 C0.0005078125,12.418125 3.581875,16.0007422 8,16.0007422 C9.63011719,16.0007422 11.1468359,15.5113281 12.4114063,14.6739063 L17.7370313,19.9996094 L19.9994922,17.7377344 Z M2.26726562,8.00175781 C2.26726562,4.83535156 4.83425781,2.26953125 8,2.26953125 C11.1663672,2.26953125 13.7333203,4.83535156 13.7333203,8.00175781 C13.7333203,11.1682031 11.1663281,13.7351953 8,13.7351953 C4.83425781,13.7351953 2.26726562,11.1682031 2.26726562,8.00175781 Z" id="Shape"></path>
        </g>
        <g id="search-copy" transform="translate(0.000000, 200.000000)" fill="#0B0C0C" fill-rule="nonzero">
            <path d="M19.9994922,17.7377344 L14.6738281,12.4120313 C15.5117969,11.14625 15.9994531,9.63132813 15.9994531,8.00054688 C15.9994531,3.58175781 12.4180859,0.0003515625 8,0.0003515625 C3.58183594,0.0003515625 0.0005078125,3.58175781 0.0005078125,8.00054688 C0.0005078125,12.418125 3.581875,16.0007422 8,16.0007422 C9.63011719,16.0007422 11.1468359,15.5113281 12.4114063,14.6739063 L17.7370313,19.9996094 L19.9994922,17.7377344 Z M2.26726562,8.00175781 C2.26726562,4.83535156 4.83425781,2.26953125 8,2.26953125 C11.1663672,2.26953125 13.7333203,4.83535156 13.7333203,8.00175781 C13.7333203,11.1682031 11.1663281,13.7351953 8,13.7351953 C4.83425781,13.7351953 2.26726562,11.1682031 2.26726562,8.00175781 Z" id="Shape"></path>
        </g>
    </g>
</svg>